%TF.GenerationSoftware,KiCad,Pcbnew,8.0.0*%
%TF.CreationDate,2024-05-19T22:30:24-07:00*%
%TF.ProjectId,3DPT-breakout-v2,33445054-2d62-4726-9561-6b6f75742d76,rev?*%
%TF.SameCoordinates,Original*%
%TF.FileFunction,Plated,1,2,PTH,Mixed*%
%TF.FilePolarity,Positive*%
%FSLAX46Y46*%
G04 Gerber Fmt 4.6, Leading zero omitted, Abs format (unit mm)*
G04 Created by KiCad (PCBNEW 8.0.0) date 2024-05-19 22:30:24*
%MOMM*%
%LPD*%
G01*
G04 APERTURE LIST*
%TA.AperFunction,ViaDrill*%
%ADD10C,0.300000*%
%TD*%
%TA.AperFunction,ComponentDrill*%
%ADD11C,0.800000*%
%TD*%
%TA.AperFunction,ComponentDrill*%
%ADD12C,0.900000*%
%TD*%
%TA.AperFunction,ComponentDrill*%
%ADD13C,1.000000*%
%TD*%
G04 aperture for slot hole*
%TA.AperFunction,ComponentDrill*%
%ADD14C,1.000000*%
%TD*%
G04 APERTURE END LIST*
D10*
X89000000Y-95000000D03*
X89000000Y-104500000D03*
X89000000Y-107000000D03*
X93000000Y-107000000D03*
X93500000Y-97750000D03*
X94250000Y-92000000D03*
X96250000Y-92000000D03*
X96250000Y-103000000D03*
X97000000Y-107000000D03*
X98027298Y-96277298D03*
X98250000Y-99000000D03*
X101000000Y-107000000D03*
X101750000Y-99000000D03*
X101750000Y-103750000D03*
X102750000Y-92500000D03*
X103425000Y-96000000D03*
X103500000Y-103750000D03*
X105000000Y-107000000D03*
X106500000Y-93500000D03*
X108750000Y-97250000D03*
X109000000Y-101000000D03*
X109000000Y-107000000D03*
X110500000Y-91750000D03*
X113000000Y-95000000D03*
X113000000Y-103000000D03*
X113000000Y-107000000D03*
X117000000Y-95000000D03*
X117000000Y-103000000D03*
X117000000Y-107000000D03*
D11*
%TO.C,R1*%
X111200000Y-96250000D03*
X111200000Y-103750000D03*
D12*
%TO.C,D1*%
X116000000Y-98725000D03*
X116000000Y-101265000D03*
D13*
%TO.C,P5*%
X90000000Y-90000000D03*
%TO.C,P8*%
X90000000Y-98000000D03*
%TO.C,P4*%
X90000000Y-101000000D03*
%TO.C,P2*%
X93000000Y-90000000D03*
D14*
%TO.C,SW1*%
X94075000Y-95300000D02*
X95325000Y-95300000D01*
X94075000Y-100000000D02*
X95325000Y-100000000D01*
X94075000Y-104700000D02*
X95325000Y-104700000D01*
D13*
%TO.C,P6*%
X98000000Y-90000000D03*
D14*
%TO.C,SW1*%
X99375000Y-95300000D02*
X100625000Y-95300000D01*
X99375000Y-100000000D02*
X100625000Y-100000000D01*
X99375000Y-104700000D02*
X100625000Y-104700000D01*
D13*
%TO.C,P3*%
X101000000Y-90000000D03*
%TO.C,P7*%
X105000000Y-90000000D03*
D14*
%TO.C,SW1*%
X104675000Y-95300000D02*
X105925000Y-95300000D01*
X104675000Y-100000000D02*
X105925000Y-100000000D01*
X104675000Y-104700000D02*
X105925000Y-104700000D01*
D13*
%TO.C,P10*%
X108000000Y-90000000D03*
%TO.C,P9*%
X113000000Y-90000000D03*
%TO.C,P1*%
X116000000Y-90000000D03*
M02*
